<svg viewBox="0 0 500 500" xmlns="http://www.w3.org/2000/svg"><defs><clipPath id="a"><path d="M0 0h500v500H0Z"/></clipPath></defs><g clip-path="url(#a)"><path fill="#64748B" d="M121.99 0h255.97c67.37 0 121.99 54.61 121.99 121.99v255.97c0 67.37-54.62 121.99-121.99 121.99H121.98C54.6 499.95-.01 445.33-.01 377.96V121.98C-.01 54.6 54.6-.01 121.98-.01Z"/><path fill="#FFF" d="M392 178.889h-50.053c-8.02-13.87-19.06-25.78-32.42-34.85l29.03-28.98 -25.12-25.07 -38.66 38.578c-8.2-1.96-16.57-3.03-25.3-3.03s-17.1 1.06-25.12 3.02L185.51 89.97l-25.12 25.06 28.85 28.97c-13.19 9.06-24.23 20.97-32.25 34.84H106.94v35.55h37.22c-.89 5.86-1.61 11.73-1.61 17.77v17.77h-35.625v35.55h35.625v17.77c0 6.04.71 11.91 1.6 17.77h-37.23v35.55h50.053c18.52 31.82 52.9 53.33 92.447 53.33 39.54 0 73.92-21.52 92.447-53.34h50.053V321h-37.23c.89-5.87 1.6-11.74 1.6-17.78v-17.78h35.625v-35.56h-35.625V232.1c0-6.05-.72-11.92-1.61-17.78h37.22v-35.56ZM285.125 321.1h-71.25v-35.56h71.25v35.55Zm0-71.12h-71.25v-35.56h71.25v35.55Z"/></g></svg>