<svg viewBox="0 0 500 500" xmlns="http://www.w3.org/2000/svg"><defs><clipPath id="a"><path d="M0 0h500v500H0Z"/></clipPath></defs><path clip-path="url(#a)" fill="#FFF" d="M472 138.889h-78.16c-12.52-21.67-29.76-40.28-50.62-54.45l45.33-45.28L349.33-.02l-60.36 60.27c-12.8-3.06-25.87-4.73-39.5-4.73 -13.63 0-26.7 1.66-39.22 4.72L149.61-.04l-39.22 39.16 45.056 45.27c-20.59 14.16-37.825 32.77-50.35 54.44H26.94v55.55h58.12c-1.4 9.16-2.51 18.33-2.51 27.77v27.77H26.92v55.55h55.62v27.77c0 9.44 1.11 18.61 2.5 27.77H26.91v55.55h78.15c28.92 49.72 82.6 83.33 144.347 83.33 61.74 0 115.42-33.62 144.34-83.34h78.15v-55.56h-58.13c1.39-9.17 2.5-18.34 2.5-27.78v-27.78h55.625v-55.56H416.27v-27.78c0-9.45-1.12-18.62-2.51-27.78h58.12v-55.56ZM305.125 361.1h-111.25v-55.56h111.25v55.55Zm0-111.12h-111.25v-55.56h111.25v55.55Z"/></svg>