<svg xmlns="http://www.w3.org/2000/svg" viewBox="0 0 100 100">
  <defs>
    <linearGradient id="loggingGradient" x1="0%" y1="0%" x2="100%" y2="100%">
      <stop offset="0%" style="stop-color:#8B5CF6;stop-opacity:1" />
      <stop offset="100%" style="stop-color:#A855F7;stop-opacity:1" />
    </linearGradient>
  </defs>

  <!-- Background Circle -->
  <circle cx="50" cy="50" r="45" fill="url(#loggingGradient)" />

  <!-- Document/Log File -->
  <g transform="translate(50, 50)">
    <!-- Main document -->
    <rect x="-18" y="-22" width="28" height="36" rx="2" fill="white" opacity="0.95"/>

    <!-- Document corner fold -->
    <path d="M 6,-22 L 10,-22 L 10,-18 L 6,-18 Z" fill="url(#loggingGradient)" opacity="0.3"/>
    <path d="M 6,-22 L 6,-18 L 10,-18" fill="none" stroke="url(#loggingGradient)" stroke-width="1.5"/>

    <!-- Log lines -->
    <g stroke="url(#loggingGradient)" stroke-width="1.5" opacity="0.8">
      <line x1="-14" y1="-14" x2="2" y2="-14"/>
      <line x1="-14" y1="-8" x2="6" y2="-8"/>
      <line x1="-14" y1="-2" x2="4" y2="-2"/>
      <line x1="-14" y1="4" x2="6" y2="4"/>
      <line x1="-14" y1="10" x2="2" y2="10"/>
    </g>

    <!-- Log level indicators (colored dots) -->
    <circle cx="-16" cy="-14" r="1.5" fill="#EF4444"/> <!-- Error -->
    <circle cx="-16" cy="-8" r="1.5" fill="#F59E0B"/>  <!-- Warning -->
    <circle cx="-16" cy="-2" r="1.5" fill="#3B82F6"/>  <!-- Info -->
    <circle cx="-16" cy="4" r="1.5" fill="#8B5CF6"/>   <!-- Debug -->
    <circle cx="-16" cy="10" r="1.5" fill="#6B7280"/>  <!-- General -->

    <!-- Magnifying glass for log viewer -->
    <g transform="translate(12, 8)">
      <circle cx="0" cy="0" r="6" fill="none" stroke="white" stroke-width="2.5"/>
      <line x1="4.5" y1="4.5" x2="8" y2="8" stroke="white" stroke-width="2.5" stroke-linecap="round"/>
    </g>
  </g>
</svg>